# xmcd
#
# Track frame offsets: 
#        150
#        13409
#        27610
#        44567
#        60844
#        79632
#        97029
#        109768
#        127193
#        146488
#        160216
#
# Disc length: 2416 seconds
#
# Revision: 0
# Processed by: cddbd v1.5.2PL0 Copyright (c) Steve Scherf et al.
# Submitted via: ExactAudioCopy v1.0b3
#
DISCID=97096e0b
DTITLE=Polar Bear Club - Clash Battle Guilt Pride
DYEAR=2011
DGENRE=Punk
TTITLE0=Pawner
TTITLE1=Killin It
TTITLE2=Screams In Caves
TTITLE3=Kneel On Nails
TTITLE4=My Best Days
TTITLE5=Life Between The Lines
TTITLE6=I'll Never Leave New York
TTITLE7=Bottled Wind
TTITLE8=Slow Roam
TTITLE9=Religion On The Radio
TTITLE10=3 - 4 Tango
EXTD=
EXTT0=
EXTT1=
EXTT2=
EXTT3=
EXTT4=
EXTT5=
EXTT6=
EXTT7=
EXTT8=
EXTT9=
EXTT10=
PLAYORDER=
